<mxfile host="65bd71144e">
    <diagram id="QEwpItdeR5jyXn-44aS1" name="u50">
        <mxGraphModel dx="864" dy="512" grid="1" gridSize="10" guides="1" tooltips="1" connect="1" arrows="1" fold="1" page="1" pageScale="1" pageWidth="827" pageHeight="1169" math="0" shadow="0">
            <root>
                <mxCell id="0"/>
                <mxCell id="1" parent="0"/>
                <mxCell id="11" value="" style="edgeStyle=orthogonalEdgeStyle;html=1;fontFamily=Verdana;fontSize=16;fontColor=default;entryX=0.5;entryY=0;entryDx=0;entryDy=0;exitX=1;exitY=0.5;exitDx=0;exitDy=0;" parent="1" source="4" target="6" edge="1">
                    <mxGeometry relative="1" as="geometry">
                        <mxPoint x="740" y="330" as="targetPoint"/>
                        <Array as="points">
                            <mxPoint x="660" y="330"/>
                            <mxPoint x="660" y="400"/>
                            <mxPoint x="455" y="400"/>
                        </Array>
                    </mxGeometry>
                </mxCell>
                <mxCell id="14" value="pcie_sys_clk" style="edgeStyle=orthogonalEdgeStyle;entryX=0.5;entryY=0;entryDx=0;entryDy=0;fontFamily=Verdana;fontSize=16;fontColor=default;" parent="1" source="4" target="8" edge="1">
                    <mxGeometry relative="1" as="geometry">
                        <Array as="points">
                            <mxPoint x="1035" y="330"/>
                        </Array>
                    </mxGeometry>
                </mxCell>
                <mxCell id="4" value="ibufds_gte4_pcie_mgt_refclk_inst&#xa;IBUFDS_GTE4" style="rounded=1;fontFamily=Verdana;fontSize=16;fontColor=default;labelBackgroundColor=none;labelBorderColor=none;" parent="1" vertex="1">
                    <mxGeometry x="320" y="280" width="290" height="100" as="geometry"/>
                </mxCell>
                <mxCell id="12" value="pcie_user_clk" style="edgeStyle=orthogonalEdgeStyle;html=1;fontFamily=Verdana;fontSize=16;fontColor=default;entryX=0.004;entryY=0.111;entryDx=0;entryDy=0;exitX=0.996;exitY=0.113;exitDx=0;exitDy=0;exitPerimeter=0;entryPerimeter=0;" parent="1" source="6" target="8" edge="1">
                    <mxGeometry relative="1" as="geometry">
                        <mxPoint x="790" y="565" as="targetPoint"/>
                        <Array as="points">
                            <mxPoint x="569" y="547"/>
                        </Array>
                    </mxGeometry>
                </mxCell>
                <mxCell id="16" value="axis_rc" style="edgeStyle=orthogonalEdgeStyle;html=1;entryX=0;entryY=0.296;entryDx=0;entryDy=0;fontFamily=Verdana;fontSize=16;fontColor=default;entryPerimeter=0;shape=flexArrow;labelBackgroundColor=default;exitX=0.996;exitY=0.296;exitDx=0;exitDy=0;exitPerimeter=0;" parent="1" source="6" target="8" edge="1">
                    <mxGeometry relative="1" as="geometry">
                        <mxPoint x="590" y="780" as="sourcePoint"/>
                        <Array as="points">
                            <mxPoint x="600" y="724"/>
                            <mxPoint x="600" y="724"/>
                        </Array>
                    </mxGeometry>
                </mxCell>
                <mxCell id="17" value="axis_cq" style="edgeStyle=orthogonalEdgeStyle;shape=flexArrow;html=1;entryX=-0.004;entryY=0.37;entryDx=0;entryDy=0;entryPerimeter=0;labelBackgroundColor=default;strokeWidth=1;fontFamily=Verdana;fontSize=16;fontColor=default;targetPerimeterSpacing=0;exitX=0.996;exitY=0.37;exitDx=0;exitDy=0;exitPerimeter=0;" parent="1" source="6" target="8" edge="1">
                    <mxGeometry relative="1" as="geometry"/>
                </mxCell>
                <mxCell id="24" value="axis_rq_seq_num&lt;br style=&quot;font-size: 16px;&quot;&gt;Transmit sequence number input" style="edgeStyle=orthogonalEdgeStyle;shape=flexArrow;html=1;entryX=0;entryY=0.519;entryDx=0;entryDy=0;entryPerimeter=0;labelBackgroundColor=default;strokeWidth=1;fontFamily=Verdana;fontSize=16;fontColor=default;startArrow=none;startFill=0;targetPerimeterSpacing=0;exitX=1.001;exitY=0.519;exitDx=0;exitDy=0;exitPerimeter=0;" parent="1" source="6" target="8" edge="1">
                    <mxGeometry relative="1" as="geometry"/>
                </mxCell>
                <mxCell id="26" value="cfg_fc&lt;br style=&quot;font-size: 16px;&quot;&gt;Configuration flow control interface" style="edgeStyle=orthogonalEdgeStyle;shape=flexArrow;html=1;entryX=0.008;entryY=0.674;entryDx=0;entryDy=0;entryPerimeter=0;labelBackgroundColor=default;strokeWidth=1;fontFamily=Verdana;fontSize=16;fontColor=default;startArrow=none;startFill=0;targetPerimeterSpacing=0;exitX=0.996;exitY=0.674;exitDx=0;exitDy=0;exitPerimeter=0;" parent="1" source="6" target="8" edge="1">
                    <mxGeometry relative="1" as="geometry">
                        <mxPoint x="570" y="1080" as="sourcePoint"/>
                    </mxGeometry>
                </mxCell>
                <mxCell id="27" value="cfg_interrupt_msix" style="edgeStyle=orthogonalEdgeStyle;shape=flexArrow;html=1;entryX=-0.001;entryY=0.778;entryDx=0;entryDy=0;entryPerimeter=0;labelBackgroundColor=default;strokeWidth=1;fontFamily=Verdana;fontSize=16;fontColor=default;startArrow=block;startFill=0;targetPerimeterSpacing=0;exitX=1;exitY=0.778;exitDx=0;exitDy=0;exitPerimeter=0;" parent="1" source="6" target="8" edge="1">
                    <mxGeometry relative="1" as="geometry"/>
                </mxCell>
                <mxCell id="6" value="pcie4c_uscale_plus_inst&#xa;pcie4c_uscale_plus_0" style="rounded=1;fontFamily=Verdana;fontSize=16;fontColor=default;labelBackgroundColor=none;labelBorderColor=none;" parent="1" vertex="1">
                    <mxGeometry x="340" y="440" width="230" height="960" as="geometry"/>
                </mxCell>
                <mxCell id="15" value="axis_rq" style="edgeStyle=orthogonalEdgeStyle;html=1;entryX=1.004;entryY=0.222;entryDx=0;entryDy=0;fontFamily=Verdana;fontSize=16;fontColor=default;entryPerimeter=0;shape=flexArrow;labelBackgroundColor=default;exitX=0;exitY=0.222;exitDx=0;exitDy=0;exitPerimeter=0;strokeWidth=1;targetPerimeterSpacing=0;" parent="1" source="8" target="6" edge="1">
                    <mxGeometry relative="1" as="geometry">
                        <mxPoint x="920" y="600" as="sourcePoint"/>
                        <Array as="points"/>
                    </mxGeometry>
                </mxCell>
                <mxCell id="18" value="axis_cc" style="edgeStyle=orthogonalEdgeStyle;shape=flexArrow;html=1;entryX=1.001;entryY=0.444;entryDx=0;entryDy=0;entryPerimeter=0;labelBackgroundColor=default;strokeWidth=1;fontFamily=Verdana;fontSize=16;fontColor=default;targetPerimeterSpacing=0;exitX=0.004;exitY=0.444;exitDx=0;exitDy=0;exitPerimeter=0;" parent="1" source="8" target="6" edge="1">
                    <mxGeometry relative="1" as="geometry"/>
                </mxCell>
                <mxCell id="25" value="cfg_mgmt&lt;br style=&quot;font-size: 16px;&quot;&gt;Configuration management interface" style="edgeStyle=orthogonalEdgeStyle;shape=flexArrow;html=1;entryX=1.004;entryY=0.592;entryDx=0;entryDy=0;entryPerimeter=0;labelBackgroundColor=default;strokeWidth=1;fontFamily=Verdana;fontSize=16;fontColor=default;startArrow=none;startFill=0;targetPerimeterSpacing=0;exitX=0.006;exitY=0.592;exitDx=0;exitDy=0;exitPerimeter=0;" parent="1" source="8" target="6" edge="1">
                    <mxGeometry relative="1" as="geometry"/>
                </mxCell>
                <mxCell id="8" value="core_inst&#xa;fpga_core" style="rounded=1;fontFamily=Verdana;fontSize=16;fontColor=default;labelBackgroundColor=none;labelBorderColor=none;" parent="1" vertex="1">
                    <mxGeometry x="960" y="440" width="150" height="960" as="geometry"/>
                </mxCell>
                <mxCell id="13" style="edgeStyle=orthogonalEdgeStyle;html=1;entryX=0;entryY=0.5;entryDx=0;entryDy=0;fontFamily=Verdana;fontSize=16;fontColor=default;" parent="1" target="6" edge="1">
                    <mxGeometry relative="1" as="geometry">
                        <mxPoint x="119.99992603543478" y="330.0769230769231" as="sourcePoint"/>
                        <Array as="points">
                            <mxPoint x="290" y="330"/>
                            <mxPoint x="290" y="920"/>
                        </Array>
                    </mxGeometry>
                </mxCell>
                <mxCell id="10" value="pcie_refclk" style="edgeStyle=none;html=1;fontFamily=Verdana;fontSize=16;fontColor=default;" parent="1" edge="1">
                    <mxGeometry relative="1" as="geometry">
                        <mxPoint x="120" y="330" as="sourcePoint"/>
                        <mxPoint x="320" y="330" as="targetPoint"/>
                    </mxGeometry>
                </mxCell>
                <mxCell id="29" value="axis" style="edgeStyle=orthogonalEdgeStyle;shape=flexArrow;html=1;labelBackgroundColor=default;strokeWidth=1;fontFamily=Verdana;fontSize=16;fontColor=default;startArrow=block;startFill=0;targetPerimeterSpacing=0;exitX=0;exitY=0.25;exitDx=0;exitDy=0;" parent="1" source="20" edge="1">
                    <mxGeometry relative="1" as="geometry">
                        <mxPoint x="1200" y="610" as="targetPoint"/>
                    </mxGeometry>
                </mxCell>
                <mxCell id="30" value="rx_req_tlp" style="edgeStyle=orthogonalEdgeStyle;shape=flexArrow;html=1;entryX=0;entryY=0.25;entryDx=0;entryDy=0;labelBackgroundColor=default;strokeWidth=1;fontFamily=Verdana;fontSize=16;fontColor=default;startArrow=none;startFill=0;targetPerimeterSpacing=0;exitX=1;exitY=0.25;exitDx=0;exitDy=0;" parent="1" source="20" target="21" edge="1">
                    <mxGeometry relative="1" as="geometry"/>
                </mxCell>
                <mxCell id="32" value="rx_cpl_tlp" style="edgeStyle=orthogonalEdgeStyle;shape=flexArrow;html=1;entryX=0.007;entryY=0.541;entryDx=0;entryDy=0;labelBackgroundColor=default;strokeWidth=1;fontFamily=Verdana;fontSize=16;fontColor=default;startArrow=none;startFill=0;targetPerimeterSpacing=0;exitX=0.999;exitY=0.54;exitDx=0;exitDy=0;exitPerimeter=0;entryPerimeter=0;" parent="1" source="20" target="21" edge="1">
                    <mxGeometry relative="1" as="geometry"/>
                </mxCell>
                <mxCell id="36" value="axis_rd/wr_req_tx_seq_num" style="edgeStyle=orthogonalEdgeStyle;shape=flexArrow;html=1;entryX=-0.003;entryY=0.076;entryDx=0;entryDy=0;entryPerimeter=0;labelBackgroundColor=default;strokeWidth=1;fontFamily=Verdana;fontSize=16;fontColor=default;startArrow=none;startFill=0;targetPerimeterSpacing=0;exitX=1;exitY=0.076;exitDx=0;exitDy=0;exitPerimeter=0;" parent="1" source="20" target="21" edge="1">
                    <mxGeometry relative="1" as="geometry"/>
                </mxCell>
                <mxCell id="20" value="pcie_us_if_inst&#xa;pcie_us_if" style="rounded=1;fontFamily=Verdana;fontSize=16;fontColor=default;labelBackgroundColor=none;labelBorderColor=none;" parent="1" vertex="1">
                    <mxGeometry x="1350" y="480" width="150" height="520" as="geometry"/>
                </mxCell>
                <mxCell id="31" value="tx_cpl_tlp" style="edgeStyle=orthogonalEdgeStyle;shape=flexArrow;html=1;entryX=0.996;entryY=0.383;entryDx=0;entryDy=0;labelBackgroundColor=default;strokeWidth=1;fontFamily=Verdana;fontSize=16;fontColor=default;startArrow=none;startFill=0;targetPerimeterSpacing=0;entryPerimeter=0;exitX=0.002;exitY=0.384;exitDx=0;exitDy=0;exitPerimeter=0;" parent="1" source="21" target="20" edge="1">
                    <mxGeometry relative="1" as="geometry"/>
                </mxCell>
                <mxCell id="33" value="tx_rd_req_tlp" style="edgeStyle=orthogonalEdgeStyle;shape=flexArrow;html=1;entryX=1;entryY=0.694;entryDx=0;entryDy=0;entryPerimeter=0;labelBackgroundColor=default;strokeWidth=1;fontFamily=Verdana;fontSize=16;fontColor=default;startArrow=none;startFill=0;targetPerimeterSpacing=0;exitX=0;exitY=0.694;exitDx=0;exitDy=0;exitPerimeter=0;" parent="1" source="21" target="20" edge="1">
                    <mxGeometry relative="1" as="geometry"/>
                </mxCell>
                <mxCell id="34" value="tx_wr_req_tlp" style="edgeStyle=orthogonalEdgeStyle;shape=flexArrow;html=1;entryX=1;entryY=0.846;entryDx=0;entryDy=0;entryPerimeter=0;labelBackgroundColor=default;strokeWidth=1;fontFamily=Verdana;fontSize=16;fontColor=default;startArrow=none;startFill=0;targetPerimeterSpacing=0;exitX=0;exitY=0.846;exitDx=0;exitDy=0;exitPerimeter=0;" parent="1" source="21" target="20" edge="1">
                    <mxGeometry relative="1" as="geometry"/>
                </mxCell>
                <mxCell id="35" value="tx_misx_req_tlp" style="edgeStyle=orthogonalEdgeStyle;shape=flexArrow;html=1;entryX=0.996;entryY=0.155;entryDx=0;entryDy=0;entryPerimeter=0;labelBackgroundColor=default;strokeWidth=1;fontFamily=Verdana;fontSize=16;fontColor=default;startArrow=none;startFill=0;targetPerimeterSpacing=0;exitX=0;exitY=0.156;exitDx=0;exitDy=0;exitPerimeter=0;" parent="1" source="21" target="20" edge="1">
                    <mxGeometry relative="1" as="geometry"/>
                </mxCell>
                <mxCell id="21" value="core_pcie_inst&#xa;example_core_pcie" style="rounded=1;fontFamily=Verdana;fontSize=16;fontColor=default;labelBackgroundColor=none;labelBorderColor=none;" parent="1" vertex="1">
                    <mxGeometry x="1800" y="480" width="190" height="520" as="geometry"/>
                </mxCell>
                <mxCell id="37" value="cfg" style="edgeStyle=orthogonalEdgeStyle;shape=flexArrow;html=1;labelBackgroundColor=default;strokeWidth=1;fontFamily=Verdana;fontSize=16;fontColor=default;startArrow=block;startFill=0;targetPerimeterSpacing=0;exitX=0;exitY=0.75;exitDx=0;exitDy=0;" parent="1" source="20" edge="1">
                    <mxGeometry relative="1" as="geometry">
                        <mxPoint x="1200" y="870" as="targetPoint"/>
                        <mxPoint x="1300" y="860" as="sourcePoint"/>
                    </mxGeometry>
                </mxCell>
            </root>
        </mxGraphModel>
    </diagram>
    <diagram id="c25RUMDWbvMs9f6a4FNO" name="cq">
        <mxGraphModel dx="864" dy="512" grid="1" gridSize="10" guides="1" tooltips="1" connect="1" arrows="1" fold="1" page="1" pageScale="1" pageWidth="827" pageHeight="1169" math="0" shadow="0">
            <root>
                <mxCell id="0"/>
                <mxCell id="1" parent="0"/>
                <mxCell id="vtXwwMmjgFwjvL-cuoDa-1" value="rd_req0" style="whiteSpace=wrap;html=1;fontFamily=Verdana;fillColor=#d5e8d4;strokeColor=#82b366;" vertex="1" parent="1">
                    <mxGeometry x="440" y="80" width="120" height="40" as="geometry"/>
                </mxCell>
                <mxCell id="vtXwwMmjgFwjvL-cuoDa-2" value="" style="whiteSpace=wrap;html=1;fontFamily=Verdana;" vertex="1" parent="1">
                    <mxGeometry x="320" y="80" width="120" height="40" as="geometry"/>
                </mxCell>
                <mxCell id="vtXwwMmjgFwjvL-cuoDa-3" value="rd_req1" style="whiteSpace=wrap;html=1;fontFamily=Verdana;fillColor=#d5e8d4;strokeColor=#82b366;" vertex="1" parent="1">
                    <mxGeometry x="200" y="80" width="120" height="40" as="geometry"/>
                </mxCell>
                <mxCell id="vtXwwMmjgFwjvL-cuoDa-4" value="" style="whiteSpace=wrap;html=1;fontFamily=Verdana;" vertex="1" parent="1">
                    <mxGeometry x="80" y="80" width="120" height="40" as="geometry"/>
                </mxCell>
                <mxCell id="vtXwwMmjgFwjvL-cuoDa-5" value="128 bits" style="shape=crossbar;whiteSpace=wrap;html=1;rounded=1;labelBackgroundColor=default;fontFamily=Verdana;" vertex="1" parent="1">
                    <mxGeometry x="440" y="50" width="120" height="20" as="geometry"/>
                </mxCell>
                <mxCell id="vtXwwMmjgFwjvL-cuoDa-6" value="rd_req0" style="whiteSpace=wrap;html=1;fontFamily=Verdana;fillColor=#d5e8d4;strokeColor=#82b366;" vertex="1" parent="1">
                    <mxGeometry x="440" y="160" width="120" height="40" as="geometry"/>
                </mxCell>
                <mxCell id="vtXwwMmjgFwjvL-cuoDa-7" value="" style="whiteSpace=wrap;html=1;fontFamily=Verdana;" vertex="1" parent="1">
                    <mxGeometry x="320" y="160" width="120" height="40" as="geometry"/>
                </mxCell>
                <mxCell id="vtXwwMmjgFwjvL-cuoDa-8" value="wr_req_hd" style="whiteSpace=wrap;html=1;fontFamily=Verdana;fillColor=#d5e8d4;strokeColor=#82b366;" vertex="1" parent="1">
                    <mxGeometry x="200" y="160" width="120" height="40" as="geometry"/>
                </mxCell>
                <mxCell id="vtXwwMmjgFwjvL-cuoDa-9" value="wr_req_pd" style="whiteSpace=wrap;html=1;fontFamily=Verdana;fillColor=#dae8fc;strokeColor=#6c8ebf;" vertex="1" parent="1">
                    <mxGeometry x="80" y="160" width="120" height="40" as="geometry"/>
                </mxCell>
            </root>
        </mxGraphModel>
    </diagram>
</mxfile>